<svg xmlns="http://www.w3.org/2000/svg" width="1200" height="420" viewBox="0 0 1200 420" xmlns:c2pa="http://c2pa.org/manifest"><metadata><c2pa:manifest>AAAWgmp1bWIAAAAeanVtZGMycGEAEQAQgAAAqgA4m3EDYzJwYQAAABZcanVtYgAAAEdqdW1kYzJtYQARABCAAACqADibcQN1cm46YzJwYTozYzM0MzQ3OC1lNGNmLTQwMjAtOTMwMi1mN2I5ZjM1OTk5MzAAAAADl2p1bWIAAAApanVtZGMyYXMAEQAQgAAAqgA4m3EDYzJwYS5hc3NlcnRpb25zAAAAALxqdW1iAAAARGp1bWRjYm9yABEAEIAAAKoAOJtxE2MycGEuaW5ncmVkaWVudC52MwAAAAAYYzJzaGHHr/LdNvGTbeWROxXVf4EAAABwY2JvcqNpZGM6Zm9ybWF0bWltYWdlL3N2Zyt4bWxqaW5zdGFuY2VJRHgseG1wOmlpZDpmY2VjMzcyMi04ODM5LTQ5OWYtODQ5Ni05ODk5NTc0NmIxYjJscmVsYXRpb25zaGlwaHBhcmVudE9mAAAB4mp1bWIAAABBanVtZGNib3IAEQAQgAAAqgA4m3ETYzJwYS5hY3Rpb25zLnYyAAAAABhjMnNoxgnvg/kAB8XYot1vZjBA4AAAAZljYm9yomdhY3Rpb25zgqJmYWN0aW9ua2MycGEub3BlbmVkanBhcmFtZXRlcnOha2luZ3JlZGllbnRzgaJjdXJseC1zZWxmI2p1bWJmPWMycGEuYXNzZXJ0aW9ucy9jMnBhLmluZ3JlZGllbnQudjNkaGFzaFgga7Nog53NTuF3j2P0pRbBxiYg/K3gmDZywaqogSwa9umkZmFjdGlvbngdY29tLmFudGhyb3BpYy5jbGF1ZGUucHJvdmlkZWRqcGFyYW1ldGVyc6F4H2NvbS5hbnRocm9waWMub3JpZ2luLWNvbmZpZGVuY2VndW5rbm93bmtkZXNjcmlwdGlvbnhmQ2xhdWRlIHByb3ZpZGVkIHRoaXMgZmlsZSBhdCB0aGUgcmVxdWVzdCBvZiBhIHVzZXIgYW5kIG1heSBoYXZlIGNyZWF0ZWQgb3IgbW9kaWZpZWQgdGhlIGZpbGUgY29udGVudHMubXNvZnR3YXJlQWdlbnShZG5hbWVmQ2xhdWRlcmFsbEFjdGlvbnNJbmNsdWRlZPUAAADIanVtYgAAAEBqdW1kY2JvcgARABCAAACqADibcRNjMnBhLmhhc2guZGF0YQAAAAAYYzJzaLSkmvtmQq0RRthM6PNEhbAAAACAY2JvcqVjYWxnZnNoYTI1NmNwYWRNAAAAAAAAAAAAAAAAAGRoYXNoWCDNPr3vqloHSQB7IUab+ZsYnGoO+5xDWA2MSKZBNUBvMmRuYW1lbmp1bWJmIG1hbmlmZXN0amV4Y2x1c2lvbnOBomVzdGFydBiYZmxlbmd0aBkeBAAAAj5qdW1iAAAAJ2p1bWRjMmNsABEAEIAAAKoAOJtxA2MycGEuY2xhaW0udjIAAAACD2Nib3KlY2FsZ2ZzaGEyNTZpc2lnbmF0dXJleE1zZWxmI2p1bWJmPS9jMnBhL3VybjpjMnBhOjNjMzQzNDc4LWU0Y2YtNDAyMC05MzAyLWY3YjlmMzU5OTkzMC9jMnBhLnNpZ25hdHVyZWppbnN0YW5jZUlEeCx4bXA6aWlkOmNlYTUxNzJlLWQ0ODMtNDUwYS1iMDMzLTM2N2U1MDE0ZmQ1N3JjcmVhdGVkX2Fzc2VydGlvbnODomN1cmx4LXNlbGYjanVtYmY9YzJwYS5hc3NlcnRpb25zL2MycGEuaW5ncmVkaWVudC52M2RoYXNoWCBrs2iDnc1O4XePY/SlFsHGJiD8reCYNnLBqqiBLBr26aJjdXJseCpzZWxmI2p1bWJmPWMycGEuYXNzZXJ0aW9ucy9jMnBhLmFjdGlvbnMudjJkaGFzaFggT/XFlEvkBRrZSF2dniKrPqyK9YBQ6yZupXaVuErt4cyiY3VybHgpc2VsZiNqdW1iZj1jMnBhLmFzc2VydGlvbnMvYzJwYS5oYXNoLmRhdGFkaGFzaFggxw/igITh7HkllMnfGgtOP39/Saap5rJxRTy5oHepMdx0Y2xhaW1fZ2VuZXJhdG9yX2luZm+jZG5hbWVvQW50aHJvcGljIEZpbGVzZ3ZlcnNpb25lMS4wLjBrc3BlY1ZlcnNpb25lMi40LjAAABA4anVtYgAAAChqdW1kYzJjcwARABCAAACqADibcQNjMnBhLnNpZ25hdHVyZQAAABAIY2JvctKEWQISogEmGCFZAgowggIGMIIBjaADAgECAhRA5aAK7sI50L64g/oGQgU9Z1UTADAKBggqhkjOPQQDAzBJMRcwFQYDVQQKEw5BbnRocm9waWMsIFBCQzEuMCwGA1UEAxMlQW50aHJvcGljIENvbnRlbnQgQ3JlZGVudGlhbHMgUm9vdCBDQTAeFw0yNjA4MDcxODQzNTZaFw0yODA4MDYxOTQzNTZaMEQxFzAVBgNVBAoTDkFudGhyb3BpYywgUEJDMSkwJwYDVQQDEyBBbnRocm9waWMgQ2xhdWRlIENvbnRlbnQgU2lnbmluZzBZMBMGByqGSM49AgEGCCqGSM49AwEHA0IABJh6CmvLUBgFFNU0vUKlOVtE6djd17L5SuwX0LemFisBM3dkd/3cyjxFA3Qo5S46fX0/ihY0VZ7mfb9KF703t5OjWDBWMA4GA1UdDwEB/wQEAwIHgDAVBgNVHSUEDjAMBgorBgEEAYPoXgIBMAwGA1UdEwEB/wQCMAAwHwYDVR0jBBgwFoAUzlHiBIFOZFsj+OPEz5o+nMHXXMIwCgYIKoZIzj0EAwMDZwAwZAIwMXMdFJ4BetLLVY7ORuE9noqbbAZOZn/aArXyTwFAZfKrPzxF2vPoJNf1+UCdg1XGAjBwX1zd9WGqYkqmL5SFqw1QySjr1zJfpJM9+1rdDwSPLMOPOjKuiXjoU/pUUeG9RwmhY3BhZFkNngAAAAAAAAAAAAAAAAAAAAAAAAAAAAAAAAAAAAAAAAAAAAAAAAAAAAAAAAAAAAAAAAAAAAAAAAAAAAAAAAAAAAAAAAAAAAAAAAAAAAAAAAAAAAAAAAAAAAAAAAAAAAAAAAAAAAAAAAAAAAAAAAAAAAAAAAAAAAAAAAAAAAAAAAAAAAAAAAAAAAAAAAAAAAAAAAAAAAAAAAAAAAAAAAAAAAAAAAAAAAAAAAAAAAAAAAAAAAAAAAAAAAAAAAAAAAAAAAAAAAAAAAAAAAAAAAAAAAAAAAAAAAAAAAAAAAAAAAAAAAAAAAAAAAAAAAAAAAAAAAAAAAAAAAAAAAAAAAAAAAAAAAAAAAAAAAAAAAAAAAAAAAAAAAAAAAAAAAAAAAAAAAAAAAAAAAAAAAAAAAAAAAAAAAAAAAAAAAAAAAAAAAAAAAAAAAAAAAAAAAAAAAAAAAAAAAAAAAAAAAAAAAAAAAAAAAAAAAAAAAAAAAAAAAAAAAAAAAAAAAAAAAAAAAAAAAAAAAAAAAAAAAAAAAAAAAAAAAAAAAAAAAAAAAAAAAAAAAAAAAAAAAAAAAAAAAAAAAAAAAAAAAAAAAAAAAAAAAAAAAAAAAAAAAAAAAAAAAAAAAAAAAAAAAAAAAAAAAAAAAAAAAAAAAAAAAAAAAAAAAAAAAAAAAAAAAAAAAAAAAAAAAAAAAAAAAAAAAAAAAAAAAAAAAAAAAAAAAAAAAAAAAAAAAAAAAAAAAAAAAAAAAAAAAAAAAAAAAAAAAAAAAAAAAAAAAAAAAAAAAAAAAAAAAAAAAAAAAAAAAAAAAAAAAAAAAAAAAAAAAAAAAAAAAAAAAAAAAAAAAAAAAAAAAAAAAAAAAAAAAAAAAAAAAAAAAAAAAAAAAAAAAAAAAAAAAAAAAAAAAAAAAAAAAAAAAAAAAAAAAAAAAAAAAAAAAAAAAAAAAAAAAAAAAAAAAAAAAAAAAAAAAAAAAAAAAAAAAAAAAAAAAAAAAAAAAAAAAAAAAAAAAAAAAAAAAAAAAAAAAAAAAAAAAAAAAAAAAAAAAAAAAAAAAAAAAAAAAAAAAAAAAAAAAAAAAAAAAAAAAAAAAAAAAAAAAAAAAAAAAAAAAAAAAAAAAAAAAAAAAAAAAAAAAAAAAAAAAAAAAAAAAAAAAAAAAAAAAAAAAAAAAAAAAAAAAAAAAAAAAAAAAAAAAAAAAAAAAAAAAAAAAAAAAAAAAAAAAAAAAAAAAAAAAAAAAAAAAAAAAAAAAAAAAAAAAAAAAAAAAAAAAAAAAAAAAAAAAAAAAAAAAAAAAAAAAAAAAAAAAAAAAAAAAAAAAAAAAAAAAAAAAAAAAAAAAAAAAAAAAAAAAAAAAAAAAAAAAAAAAAAAAAAAAAAAAAAAAAAAAAAAAAAAAAAAAAAAAAAAAAAAAAAAAAAAAAAAAAAAAAAAAAAAAAAAAAAAAAAAAAAAAAAAAAAAAAAAAAAAAAAAAAAAAAAAAAAAAAAAAAAAAAAAAAAAAAAAAAAAAAAAAAAAAAAAAAAAAAAAAAAAAAAAAAAAAAAAAAAAAAAAAAAAAAAAAAAAAAAAAAAAAAAAAAAAAAAAAAAAAAAAAAAAAAAAAAAAAAAAAAAAAAAAAAAAAAAAAAAAAAAAAAAAAAAAAAAAAAAAAAAAAAAAAAAAAAAAAAAAAAAAAAAAAAAAAAAAAAAAAAAAAAAAAAAAAAAAAAAAAAAAAAAAAAAAAAAAAAAAAAAAAAAAAAAAAAAAAAAAAAAAAAAAAAAAAAAAAAAAAAAAAAAAAAAAAAAAAAAAAAAAAAAAAAAAAAAAAAAAAAAAAAAAAAAAAAAAAAAAAAAAAAAAAAAAAAAAAAAAAAAAAAAAAAAAAAAAAAAAAAAAAAAAAAAAAAAAAAAAAAAAAAAAAAAAAAAAAAAAAAAAAAAAAAAAAAAAAAAAAAAAAAAAAAAAAAAAAAAAAAAAAAAAAAAAAAAAAAAAAAAAAAAAAAAAAAAAAAAAAAAAAAAAAAAAAAAAAAAAAAAAAAAAAAAAAAAAAAAAAAAAAAAAAAAAAAAAAAAAAAAAAAAAAAAAAAAAAAAAAAAAAAAAAAAAAAAAAAAAAAAAAAAAAAAAAAAAAAAAAAAAAAAAAAAAAAAAAAAAAAAAAAAAAAAAAAAAAAAAAAAAAAAAAAAAAAAAAAAAAAAAAAAAAAAAAAAAAAAAAAAAAAAAAAAAAAAAAAAAAAAAAAAAAAAAAAAAAAAAAAAAAAAAAAAAAAAAAAAAAAAAAAAAAAAAAAAAAAAAAAAAAAAAAAAAAAAAAAAAAAAAAAAAAAAAAAAAAAAAAAAAAAAAAAAAAAAAAAAAAAAAAAAAAAAAAAAAAAAAAAAAAAAAAAAAAAAAAAAAAAAAAAAAAAAAAAAAAAAAAAAAAAAAAAAAAAAAAAAAAAAAAAAAAAAAAAAAAAAAAAAAAAAAAAAAAAAAAAAAAAAAAAAAAAAAAAAAAAAAAAAAAAAAAAAAAAAAAAAAAAAAAAAAAAAAAAAAAAAAAAAAAAAAAAAAAAAAAAAAAAAAAAAAAAAAAAAAAAAAAAAAAAAAAAAAAAAAAAAAAAAAAAAAAAAAAAAAAAAAAAAAAAAAAAAAAAAAAAAAAAAAAAAAAAAAAAAAAAAAAAAAAAAAAAAAAAAAAAAAAAAAAAAAAAAAAAAAAAAAAAAAAAAAAAAAAAAAAAAAAAAAAAAAAAAAAAAAAAAAAAAAAAAAAAAAAAAAAAAAAAAAAAAAAAAAAAAAAAAAAAAAAAAAAAAAAAAAAAAAAAAAAAAAAAAAAAAAAAAAAAAAAAAAAAAAAAAAAAAAAAAAAAAAAAAAAAAAAAAAAAAAAAAAAAAAAAAAAAAAAAAAAAAAAAAAAAAAAAAAAAAAAAAAAAAAAAAAAAAAAAAAAAAAAAAAAAAAAAAAAAAAAAAAAAAAAAAAAAAAAAAAAAAAAAAAAAAAAAAAAAAAAAAAAAAAAAAAAAAAAAAAAAAAAAAAAAAAAAAAAAAAAAAAAAAAAAAAAAAAAAAAAAAAAAAAAAAAAAAAAAAAAAAAAAAAAAAAAAAAAAAAAAAAAAAAAAAAAAAAAAAAAAAAAAAAAAAAAAAAAAAAAAAAAAAAAAAAAAAAAAAAAAAAAAAAAAAAAAAAAAAAAAAAAAAAAAAAAAAAAAAAAAAAAAAAAAAAAAAAAAAAAAAAAAAAAAAAAAAAAAAAAAAAAAAAAAAAAAAAAAAAAAAAAAAAAAAAAAAAAAAAAAAAAAAAAAAAAAAAAAAAAAAAAAAAAAAAAAAAAAAAAAAAAAAAAAAAAAAAAAAAAAAAAAAAAAAAAAAAAAAAAAAAAAAAAAAAAAAAAAAAAAAAAAAAAAAAAAAAAAAAAAAAAAAAAAAAAAAAAAAAAAAAAAAAAAAAAAAAAAAAAAAAAAAAAAAAAAAAAAAAAAAAAAAAAAAAAAAAAAAAAAAAAAAAAAAAAAAAAAAAAAAAAAAAAAAAAAAAAAAAAAAAAAAAAAAAAAAAAAAAAAAAAAAAAAAAAAAAAAAAAAAAAAAAAAAAAAAAAAAAAAAAAAAAAAAAAAAAAAAAAAAAAAAAAAAAAAAAAAAAAAAAAAAAAAAAAAAAAAAAAAAAAAAAAAAAAAAAAAAAAAAAAAAAAAAAAAAAAAAAAAAAAAAAAAAAAAAAAAAAAAAAAAAAAAAAAAAAAAAAAAAAAAAAAAAAAAAAAAAAAAAAAAAAAAAAAAAAAAAAAAAAAAAAAAAAAAAAAAAAAAAAAAAAAAAAAAAAAAAAAAAAAAAAAAAAAAAAAAAAAAAAAAAAAAAAAAAAAAAAAAAAAAAAAAAAAAAAAAAAAAAAAAAAAAAAAAAAAAAAAAAAAAAAAAAAAAAAAAAAAAAAAAAAAAAAAAAAAAAAAAAAAAAAAAAAAAAAAAAAAAAAAAAAAAAAAAAAAAAAAAAAAAAAAAAAAAAAAAAAAAAAAAAAAAAAAAAAAAAAAAAAAAAAAAAAAAAAAAAAAAAAAAAAAAAAAAAAAAAAAAAAAAAAAAAAAAAAAAAAAAAAAAAAAAAAAAAAAAAAAAAAAAAAAAAAAAAAAAAAAAAAAAAAAAAAAAAAAAAAAAAAAAAAAAAAAAAAAAAAAAAAAAAAAAAAAAAAAAAAAAAAAAAAAAAAAAAAAAAAAAAAAAAAAAAAAAAAAAAAAAAAAAAAAAAAAAAAAAAAAAAAAAAAAAAAAAAAAAAAAAAAAAAAAAAAAAAAAAAAAAAAAAAAAAAAAAAAAAAAAAAAAAAAAAAAAAAAAAAAAAAAAAAAAAAAAAAAAAAAAAAAAAAAAAAAAAAAAAAAAAAAAAAAAAAAAAAAAAAAAAAAAAAAAAAAAAAAAAAAAAAAAAAAAAAAAAAAAAAAAAAAAAAAAAAAAAAAAAAAAAAAAAAAAAAAAAAAAAAAAAAAAAAAAAAAAAAAAAAAAAAAAAAAAAAAAAAAAAAAAAAAAAAAAAAAAAAAAAAAAAAAAAAAAAAAAAAAAAAAAAAAAAAAAAAAAAAAAAAAAAAAAAAAAAAAAAAAAAAAAAAAAAAAAAAAAAAAAAAAAAAAAAAAAAAAAAAAAAAAAAAAAAAAAAAAAAAAAAAAAAAAAAAAAAAAAAAAAAAAAAAAAAAAAAAAAAAAAAAAAAAAAAAAAAAAAAAAAAAAAAAAAAAAAAAAAAAAAAAAAAAAPZYQNhO9KANUfbSULAZQVHp3zMipsDN/2j+mfgKlEEqyjdkSkUDafjpGo68sp2aDKHfJ7tjXqv5muOA4svhrTFZL1A=</c2pa:manifest></metadata>
<defs><linearGradient id="bg" x1="0" y1="0" x2="1" y2="1"><stop offset="0" stop-color="#1f5c99"/><stop offset="1" stop-color="#143f6e"/></linearGradient>
<clipPath id="clip"><rect width="1200" height="420" rx="36"/></clipPath></defs>
<g clip-path="url(#clip)"><rect width="1200" height="420" fill="url(#bg)"/><line x1="0" y1="0" x2="0" y2="420" stroke="#9cc6ee" stroke-opacity="0.22" stroke-width="1"/>
<line x1="16" y1="0" x2="16" y2="420" stroke="#9cc6ee" stroke-opacity="0.08" stroke-width="1"/>
<line x1="32" y1="0" x2="32" y2="420" stroke="#9cc6ee" stroke-opacity="0.08" stroke-width="1"/>
<line x1="48" y1="0" x2="48" y2="420" stroke="#9cc6ee" stroke-opacity="0.08" stroke-width="1"/>
<line x1="64" y1="0" x2="64" y2="420" stroke="#9cc6ee" stroke-opacity="0.22" stroke-width="1"/>
<line x1="80" y1="0" x2="80" y2="420" stroke="#9cc6ee" stroke-opacity="0.08" stroke-width="1"/>
<line x1="96" y1="0" x2="96" y2="420" stroke="#9cc6ee" stroke-opacity="0.08" stroke-width="1"/>
<line x1="112" y1="0" x2="112" y2="420" stroke="#9cc6ee" stroke-opacity="0.08" stroke-width="1"/>
<line x1="128" y1="0" x2="128" y2="420" stroke="#9cc6ee" stroke-opacity="0.22" stroke-width="1"/>
<line x1="144" y1="0" x2="144" y2="420" stroke="#9cc6ee" stroke-opacity="0.08" stroke-width="1"/>
<line x1="160" y1="0" x2="160" y2="420" stroke="#9cc6ee" stroke-opacity="0.08" stroke-width="1"/>
<line x1="176" y1="0" x2="176" y2="420" stroke="#9cc6ee" stroke-opacity="0.08" stroke-width="1"/>
<line x1="192" y1="0" x2="192" y2="420" stroke="#9cc6ee" stroke-opacity="0.22" stroke-width="1"/>
<line x1="208" y1="0" x2="208" y2="420" stroke="#9cc6ee" stroke-opacity="0.08" stroke-width="1"/>
<line x1="224" y1="0" x2="224" y2="420" stroke="#9cc6ee" stroke-opacity="0.08" stroke-width="1"/>
<line x1="240" y1="0" x2="240" y2="420" stroke="#9cc6ee" stroke-opacity="0.08" stroke-width="1"/>
<line x1="256" y1="0" x2="256" y2="420" stroke="#9cc6ee" stroke-opacity="0.22" stroke-width="1"/>
<line x1="272" y1="0" x2="272" y2="420" stroke="#9cc6ee" stroke-opacity="0.08" stroke-width="1"/>
<line x1="288" y1="0" x2="288" y2="420" stroke="#9cc6ee" stroke-opacity="0.08" stroke-width="1"/>
<line x1="304" y1="0" x2="304" y2="420" stroke="#9cc6ee" stroke-opacity="0.08" stroke-width="1"/>
<line x1="320" y1="0" x2="320" y2="420" stroke="#9cc6ee" stroke-opacity="0.22" stroke-width="1"/>
<line x1="336" y1="0" x2="336" y2="420" stroke="#9cc6ee" stroke-opacity="0.08" stroke-width="1"/>
<line x1="352" y1="0" x2="352" y2="420" stroke="#9cc6ee" stroke-opacity="0.08" stroke-width="1"/>
<line x1="368" y1="0" x2="368" y2="420" stroke="#9cc6ee" stroke-opacity="0.08" stroke-width="1"/>
<line x1="384" y1="0" x2="384" y2="420" stroke="#9cc6ee" stroke-opacity="0.22" stroke-width="1"/>
<line x1="400" y1="0" x2="400" y2="420" stroke="#9cc6ee" stroke-opacity="0.08" stroke-width="1"/>
<line x1="416" y1="0" x2="416" y2="420" stroke="#9cc6ee" stroke-opacity="0.08" stroke-width="1"/>
<line x1="432" y1="0" x2="432" y2="420" stroke="#9cc6ee" stroke-opacity="0.08" stroke-width="1"/>
<line x1="448" y1="0" x2="448" y2="420" stroke="#9cc6ee" stroke-opacity="0.22" stroke-width="1"/>
<line x1="464" y1="0" x2="464" y2="420" stroke="#9cc6ee" stroke-opacity="0.08" stroke-width="1"/>
<line x1="480" y1="0" x2="480" y2="420" stroke="#9cc6ee" stroke-opacity="0.08" stroke-width="1"/>
<line x1="496" y1="0" x2="496" y2="420" stroke="#9cc6ee" stroke-opacity="0.08" stroke-width="1"/>
<line x1="512" y1="0" x2="512" y2="420" stroke="#9cc6ee" stroke-opacity="0.22" stroke-width="1"/>
<line x1="528" y1="0" x2="528" y2="420" stroke="#9cc6ee" stroke-opacity="0.08" stroke-width="1"/>
<line x1="544" y1="0" x2="544" y2="420" stroke="#9cc6ee" stroke-opacity="0.08" stroke-width="1"/>
<line x1="560" y1="0" x2="560" y2="420" stroke="#9cc6ee" stroke-opacity="0.08" stroke-width="1"/>
<line x1="576" y1="0" x2="576" y2="420" stroke="#9cc6ee" stroke-opacity="0.22" stroke-width="1"/>
<line x1="592" y1="0" x2="592" y2="420" stroke="#9cc6ee" stroke-opacity="0.08" stroke-width="1"/>
<line x1="608" y1="0" x2="608" y2="420" stroke="#9cc6ee" stroke-opacity="0.08" stroke-width="1"/>
<line x1="624" y1="0" x2="624" y2="420" stroke="#9cc6ee" stroke-opacity="0.08" stroke-width="1"/>
<line x1="640" y1="0" x2="640" y2="420" stroke="#9cc6ee" stroke-opacity="0.22" stroke-width="1"/>
<line x1="656" y1="0" x2="656" y2="420" stroke="#9cc6ee" stroke-opacity="0.08" stroke-width="1"/>
<line x1="672" y1="0" x2="672" y2="420" stroke="#9cc6ee" stroke-opacity="0.08" stroke-width="1"/>
<line x1="688" y1="0" x2="688" y2="420" stroke="#9cc6ee" stroke-opacity="0.08" stroke-width="1"/>
<line x1="704" y1="0" x2="704" y2="420" stroke="#9cc6ee" stroke-opacity="0.22" stroke-width="1"/>
<line x1="720" y1="0" x2="720" y2="420" stroke="#9cc6ee" stroke-opacity="0.08" stroke-width="1"/>
<line x1="736" y1="0" x2="736" y2="420" stroke="#9cc6ee" stroke-opacity="0.08" stroke-width="1"/>
<line x1="752" y1="0" x2="752" y2="420" stroke="#9cc6ee" stroke-opacity="0.08" stroke-width="1"/>
<line x1="768" y1="0" x2="768" y2="420" stroke="#9cc6ee" stroke-opacity="0.22" stroke-width="1"/>
<line x1="784" y1="0" x2="784" y2="420" stroke="#9cc6ee" stroke-opacity="0.08" stroke-width="1"/>
<line x1="800" y1="0" x2="800" y2="420" stroke="#9cc6ee" stroke-opacity="0.08" stroke-width="1"/>
<line x1="816" y1="0" x2="816" y2="420" stroke="#9cc6ee" stroke-opacity="0.08" stroke-width="1"/>
<line x1="832" y1="0" x2="832" y2="420" stroke="#9cc6ee" stroke-opacity="0.22" stroke-width="1"/>
<line x1="848" y1="0" x2="848" y2="420" stroke="#9cc6ee" stroke-opacity="0.08" stroke-width="1"/>
<line x1="864" y1="0" x2="864" y2="420" stroke="#9cc6ee" stroke-opacity="0.08" stroke-width="1"/>
<line x1="880" y1="0" x2="880" y2="420" stroke="#9cc6ee" stroke-opacity="0.08" stroke-width="1"/>
<line x1="896" y1="0" x2="896" y2="420" stroke="#9cc6ee" stroke-opacity="0.22" stroke-width="1"/>
<line x1="912" y1="0" x2="912" y2="420" stroke="#9cc6ee" stroke-opacity="0.08" stroke-width="1"/>
<line x1="928" y1="0" x2="928" y2="420" stroke="#9cc6ee" stroke-opacity="0.08" stroke-width="1"/>
<line x1="944" y1="0" x2="944" y2="420" stroke="#9cc6ee" stroke-opacity="0.08" stroke-width="1"/>
<line x1="960" y1="0" x2="960" y2="420" stroke="#9cc6ee" stroke-opacity="0.22" stroke-width="1"/>
<line x1="976" y1="0" x2="976" y2="420" stroke="#9cc6ee" stroke-opacity="0.08" stroke-width="1"/>
<line x1="992" y1="0" x2="992" y2="420" stroke="#9cc6ee" stroke-opacity="0.08" stroke-width="1"/>
<line x1="1008" y1="0" x2="1008" y2="420" stroke="#9cc6ee" stroke-opacity="0.08" stroke-width="1"/>
<line x1="1024" y1="0" x2="1024" y2="420" stroke="#9cc6ee" stroke-opacity="0.22" stroke-width="1"/>
<line x1="1040" y1="0" x2="1040" y2="420" stroke="#9cc6ee" stroke-opacity="0.08" stroke-width="1"/>
<line x1="1056" y1="0" x2="1056" y2="420" stroke="#9cc6ee" stroke-opacity="0.08" stroke-width="1"/>
<line x1="1072" y1="0" x2="1072" y2="420" stroke="#9cc6ee" stroke-opacity="0.08" stroke-width="1"/>
<line x1="1088" y1="0" x2="1088" y2="420" stroke="#9cc6ee" stroke-opacity="0.22" stroke-width="1"/>
<line x1="1104" y1="0" x2="1104" y2="420" stroke="#9cc6ee" stroke-opacity="0.08" stroke-width="1"/>
<line x1="1120" y1="0" x2="1120" y2="420" stroke="#9cc6ee" stroke-opacity="0.08" stroke-width="1"/>
<line x1="1136" y1="0" x2="1136" y2="420" stroke="#9cc6ee" stroke-opacity="0.08" stroke-width="1"/>
<line x1="1152" y1="0" x2="1152" y2="420" stroke="#9cc6ee" stroke-opacity="0.22" stroke-width="1"/>
<line x1="1168" y1="0" x2="1168" y2="420" stroke="#9cc6ee" stroke-opacity="0.08" stroke-width="1"/>
<line x1="1184" y1="0" x2="1184" y2="420" stroke="#9cc6ee" stroke-opacity="0.08" stroke-width="1"/>
<line x1="1200" y1="0" x2="1200" y2="420" stroke="#9cc6ee" stroke-opacity="0.08" stroke-width="1"/>
<line x1="0" y1="0" x2="1200" y2="0" stroke="#9cc6ee" stroke-opacity="0.22" stroke-width="1"/>
<line x1="0" y1="16" x2="1200" y2="16" stroke="#9cc6ee" stroke-opacity="0.08" stroke-width="1"/>
<line x1="0" y1="32" x2="1200" y2="32" stroke="#9cc6ee" stroke-opacity="0.08" stroke-width="1"/>
<line x1="0" y1="48" x2="1200" y2="48" stroke="#9cc6ee" stroke-opacity="0.08" stroke-width="1"/>
<line x1="0" y1="64" x2="1200" y2="64" stroke="#9cc6ee" stroke-opacity="0.22" stroke-width="1"/>
<line x1="0" y1="80" x2="1200" y2="80" stroke="#9cc6ee" stroke-opacity="0.08" stroke-width="1"/>
<line x1="0" y1="96" x2="1200" y2="96" stroke="#9cc6ee" stroke-opacity="0.08" stroke-width="1"/>
<line x1="0" y1="112" x2="1200" y2="112" stroke="#9cc6ee" stroke-opacity="0.08" stroke-width="1"/>
<line x1="0" y1="128" x2="1200" y2="128" stroke="#9cc6ee" stroke-opacity="0.22" stroke-width="1"/>
<line x1="0" y1="144" x2="1200" y2="144" stroke="#9cc6ee" stroke-opacity="0.08" stroke-width="1"/>
<line x1="0" y1="160" x2="1200" y2="160" stroke="#9cc6ee" stroke-opacity="0.08" stroke-width="1"/>
<line x1="0" y1="176" x2="1200" y2="176" stroke="#9cc6ee" stroke-opacity="0.08" stroke-width="1"/>
<line x1="0" y1="192" x2="1200" y2="192" stroke="#9cc6ee" stroke-opacity="0.22" stroke-width="1"/>
<line x1="0" y1="208" x2="1200" y2="208" stroke="#9cc6ee" stroke-opacity="0.08" stroke-width="1"/>
<line x1="0" y1="224" x2="1200" y2="224" stroke="#9cc6ee" stroke-opacity="0.08" stroke-width="1"/>
<line x1="0" y1="240" x2="1200" y2="240" stroke="#9cc6ee" stroke-opacity="0.08" stroke-width="1"/>
<line x1="0" y1="256" x2="1200" y2="256" stroke="#9cc6ee" stroke-opacity="0.22" stroke-width="1"/>
<line x1="0" y1="272" x2="1200" y2="272" stroke="#9cc6ee" stroke-opacity="0.08" stroke-width="1"/>
<line x1="0" y1="288" x2="1200" y2="288" stroke="#9cc6ee" stroke-opacity="0.08" stroke-width="1"/>
<line x1="0" y1="304" x2="1200" y2="304" stroke="#9cc6ee" stroke-opacity="0.08" stroke-width="1"/>
<line x1="0" y1="320" x2="1200" y2="320" stroke="#9cc6ee" stroke-opacity="0.22" stroke-width="1"/>
<line x1="0" y1="336" x2="1200" y2="336" stroke="#9cc6ee" stroke-opacity="0.08" stroke-width="1"/>
<line x1="0" y1="352" x2="1200" y2="352" stroke="#9cc6ee" stroke-opacity="0.08" stroke-width="1"/>
<line x1="0" y1="368" x2="1200" y2="368" stroke="#9cc6ee" stroke-opacity="0.08" stroke-width="1"/>
<line x1="0" y1="384" x2="1200" y2="384" stroke="#9cc6ee" stroke-opacity="0.22" stroke-width="1"/>
<line x1="0" y1="400" x2="1200" y2="400" stroke="#9cc6ee" stroke-opacity="0.08" stroke-width="1"/>
<line x1="0" y1="416" x2="1200" y2="416" stroke="#9cc6ee" stroke-opacity="0.08" stroke-width="1"/>
<line x1="40" y1="265.0" x2="1160" y2="265.0" stroke="#e6f2ff" stroke-opacity="0.54" stroke-width="1.5" />
<line x1="40" y1="157.0" x2="1160" y2="157.0" stroke="#e6f2ff" stroke-opacity="0.36" stroke-width="1.5" stroke-dasharray="6 5"/>
<line x1="40" y1="97.1" x2="1160" y2="97.1" stroke="#e6f2ff" stroke-opacity="0.21" stroke-width="1.5" stroke-dasharray="6 5"/>
<line x1="40" y1="332.0" x2="1160" y2="332.0" stroke="#e6f2ff" stroke-opacity="0.21" stroke-width="1.5" stroke-dasharray="6 5"/>
<line x1="32.5" y1="373.0" x2="120.0" y2="22.0" stroke="#e6f2ff" stroke-opacity="0.16" stroke-width="1.2" stroke-dasharray="3 6"/>
<line x1="70.3" y1="373.0" x2="157.8" y2="22.0" stroke="#e6f2ff" stroke-opacity="0.16" stroke-width="1.2" stroke-dasharray="3 6"/>
<line x1="108.1" y1="373.0" x2="195.6" y2="22.0" stroke="#e6f2ff" stroke-opacity="0.16" stroke-width="1.2" stroke-dasharray="3 6"/>
<line x1="145.9" y1="373.0" x2="233.4" y2="22.0" stroke="#e6f2ff" stroke-opacity="0.16" stroke-width="1.2" stroke-dasharray="3 6"/>
<line x1="183.7" y1="373.0" x2="271.2" y2="22.0" stroke="#e6f2ff" stroke-opacity="0.16" stroke-width="1.2" stroke-dasharray="3 6"/>
<line x1="221.5" y1="373.0" x2="309.0" y2="22.0" stroke="#e6f2ff" stroke-opacity="0.16" stroke-width="1.2" stroke-dasharray="3 6"/>
<line x1="259.3" y1="373.0" x2="346.8" y2="22.0" stroke="#e6f2ff" stroke-opacity="0.16" stroke-width="1.2" stroke-dasharray="3 6"/>
<line x1="297.1" y1="373.0" x2="384.6" y2="22.0" stroke="#e6f2ff" stroke-opacity="0.16" stroke-width="1.2" stroke-dasharray="3 6"/>
<line x1="334.9" y1="373.0" x2="422.4" y2="22.0" stroke="#e6f2ff" stroke-opacity="0.16" stroke-width="1.2" stroke-dasharray="3 6"/>
<line x1="372.7" y1="373.0" x2="460.2" y2="22.0" stroke="#e6f2ff" stroke-opacity="0.16" stroke-width="1.2" stroke-dasharray="3 6"/>
<line x1="410.5" y1="373.0" x2="498.0" y2="22.0" stroke="#e6f2ff" stroke-opacity="0.16" stroke-width="1.2" stroke-dasharray="3 6"/>
<line x1="448.3" y1="373.0" x2="535.8" y2="22.0" stroke="#e6f2ff" stroke-opacity="0.16" stroke-width="1.2" stroke-dasharray="3 6"/>
<line x1="486.1" y1="373.0" x2="573.6" y2="22.0" stroke="#e6f2ff" stroke-opacity="0.16" stroke-width="1.2" stroke-dasharray="3 6"/>
<line x1="523.9" y1="373.0" x2="611.4" y2="22.0" stroke="#e6f2ff" stroke-opacity="0.16" stroke-width="1.2" stroke-dasharray="3 6"/>
<line x1="561.7" y1="373.0" x2="649.2" y2="22.0" stroke="#e6f2ff" stroke-opacity="0.16" stroke-width="1.2" stroke-dasharray="3 6"/>
<line x1="599.5" y1="373.0" x2="687.0" y2="22.0" stroke="#e6f2ff" stroke-opacity="0.16" stroke-width="1.2" stroke-dasharray="3 6"/>
<line x1="637.3" y1="373.0" x2="724.8" y2="22.0" stroke="#e6f2ff" stroke-opacity="0.16" stroke-width="1.2" stroke-dasharray="3 6"/>
<line x1="675.1" y1="373.0" x2="762.6" y2="22.0" stroke="#e6f2ff" stroke-opacity="0.16" stroke-width="1.2" stroke-dasharray="3 6"/>
<line x1="712.9" y1="373.0" x2="800.4" y2="22.0" stroke="#e6f2ff" stroke-opacity="0.16" stroke-width="1.2" stroke-dasharray="3 6"/>
<line x1="750.7" y1="373.0" x2="838.2" y2="22.0" stroke="#e6f2ff" stroke-opacity="0.16" stroke-width="1.2" stroke-dasharray="3 6"/>
<line x1="788.5" y1="373.0" x2="876.0" y2="22.0" stroke="#e6f2ff" stroke-opacity="0.16" stroke-width="1.2" stroke-dasharray="3 6"/>
<line x1="826.3" y1="373.0" x2="913.8" y2="22.0" stroke="#e6f2ff" stroke-opacity="0.16" stroke-width="1.2" stroke-dasharray="3 6"/>
<line x1="864.1" y1="373.0" x2="951.6" y2="22.0" stroke="#e6f2ff" stroke-opacity="0.16" stroke-width="1.2" stroke-dasharray="3 6"/>
<line x1="901.9" y1="373.0" x2="989.4" y2="22.0" stroke="#e6f2ff" stroke-opacity="0.16" stroke-width="1.2" stroke-dasharray="3 6"/>
<line x1="939.7" y1="373.0" x2="1027.2" y2="22.0" stroke="#e6f2ff" stroke-opacity="0.16" stroke-width="1.2" stroke-dasharray="3 6"/>
<line x1="977.5" y1="373.0" x2="1065.0" y2="22.0" stroke="#e6f2ff" stroke-opacity="0.16" stroke-width="1.2" stroke-dasharray="3 6"/>
<line x1="1015.3" y1="373.0" x2="1102.8" y2="22.0" stroke="#e6f2ff" stroke-opacity="0.16" stroke-width="1.2" stroke-dasharray="3 6"/>
<line x1="1053.1" y1="373.0" x2="1140.6" y2="22.0" stroke="#e6f2ff" stroke-opacity="0.16" stroke-width="1.2" stroke-dasharray="3 6"/>
<line x1="1090.9" y1="373.0" x2="1178.4" y2="22.0" stroke="#e6f2ff" stroke-opacity="0.16" stroke-width="1.2" stroke-dasharray="3 6"/>
<line x1="1128.7" y1="373.0" x2="1216.2" y2="22.0" stroke="#e6f2ff" stroke-opacity="0.16" stroke-width="1.2" stroke-dasharray="3 6"/>
<line x1="1166.5" y1="373.0" x2="1254.0" y2="22.0" stroke="#e6f2ff" stroke-opacity="0.16" stroke-width="1.2" stroke-dasharray="3 6"/>
<line x1="1204.3" y1="373.0" x2="1291.8" y2="22.0" stroke="#e6f2ff" stroke-opacity="0.16" stroke-width="1.2" stroke-dasharray="3 6"/>
<line x1="1242.1" y1="373.0" x2="1329.6" y2="22.0" stroke="#e6f2ff" stroke-opacity="0.16" stroke-width="1.2" stroke-dasharray="3 6"/>
<line x1="1279.9" y1="373.0" x2="1367.4" y2="22.0" stroke="#e6f2ff" stroke-opacity="0.16" stroke-width="1.2" stroke-dasharray="3 6"/>
<line x1="1317.7" y1="373.0" x2="1405.2" y2="22.0" stroke="#e6f2ff" stroke-opacity="0.16" stroke-width="1.2" stroke-dasharray="3 6"/>
<line x1="1355.5" y1="373.0" x2="1443.0" y2="22.0" stroke="#e6f2ff" stroke-opacity="0.16" stroke-width="1.2" stroke-dasharray="3 6"/>
<line x1="1393.3" y1="373.0" x2="1480.8" y2="22.0" stroke="#e6f2ff" stroke-opacity="0.16" stroke-width="1.2" stroke-dasharray="3 6"/>
<line x1="1431.1" y1="373.0" x2="1518.6" y2="22.0" stroke="#e6f2ff" stroke-opacity="0.16" stroke-width="1.2" stroke-dasharray="3 6"/>
<line x1="1468.9" y1="373.0" x2="1556.4" y2="22.0" stroke="#e6f2ff" stroke-opacity="0.16" stroke-width="1.2" stroke-dasharray="3 6"/>
<line x1="1506.7" y1="373.0" x2="1594.2" y2="22.0" stroke="#e6f2ff" stroke-opacity="0.16" stroke-width="1.2" stroke-dasharray="3 6"/>
<line x1="1544.5" y1="373.0" x2="1632.0" y2="22.0" stroke="#e6f2ff" stroke-opacity="0.16" stroke-width="1.2" stroke-dasharray="3 6"/>
<line x1="1582.3" y1="373.0" x2="1669.8" y2="22.0" stroke="#e6f2ff" stroke-opacity="0.16" stroke-width="1.2" stroke-dasharray="3 6"/>
<g fill="none" stroke="#ffd166" stroke-width="1.4" stroke-opacity="0.8"><circle cx="338.5" cy="243.2" r="61.4"/><circle cx="256.3" cy="147.8" r="61.1"/><circle cx="205.4" cy="215.5" r="49.8"/><circle cx="223.9" cy="164.4" r="49.5"/><circle cx="180.3" cy="212.7" r="40.7"/><circle cx="347.0" cy="146.5" r="37.4"/><circle cx="342.4" cy="263.6" r="34.6"/><circle cx="1018.4" cy="215.6" r="57.0"/><circle cx="1019.1" cy="191.2" r="37.3"/><circle cx="1009.4" cy="189.0" r="22.1"/><circle cx="975.4" cy="250.6" r="20.8"/></g>
<path d="M851 -130 840 -48C801 -103 779 -120 745 -120C710 -120 675 -91 646 -38C617 16 603 50 552 193L496 346C653 479 693 505 737 505C755 505 768 502 796 490L833 564C808 574 795 577 777 577C745 577 724 567 678 529L468 357C465 354 453 345 436 332L488 541C517 549 525 554 540 572C495 575 474 576 449 576C370 576 306 565 262 544C187 507 146 448 146 376C146 350 150 335 163 301L245 336C229 375 223 400 223 431C223 501 273 539 366 539C377 539 393 538 414 536L384 413C353 288 339 236 323 190C284 79 247 43 170 43H132L88 0H225C313 0 315 1 383 43H262C384 165 400 191 432 316C434 309 437 302 439 294C445 277 445 276 457 239L475 179C518 39 548 -30 584 -71C628 -121 689 -147 763 -147C796 -147 814 -144 851 -130Z" transform="translate(135.04999999999995,265) scale(0.27,-0.27)" fill="#eaf3ff" fill-opacity="0.93" stroke="#ffffff" stroke-width="6.666666666666666" stroke-linejoin="round"/>
<path d="M308 90 312 120C263 90 214 65 205 65C194 65 186 77 186 93C186 129 198 167 207 205L238 332C243 353 251 385 251 397C251 405 248 410 239 410C216 410 112 342 82 322L81 293C104 306 140 330 154 330C165 330 166 319 166 310C166 288 144 214 133 168C122 122 104 75 104 30C104 4 114 -12 130 -12C147 -12 165 -3 223 35C239 46 247 52 308 90ZM315 554C297 583 296 586 286 609C285 613 283 618 281 622C275 617 271 614 267 611C240 588 238 587 212 569C220 545 227 533 250 499L283 529C289 533 292 536 315 554Z" transform="translate(342.94999999999993,265) scale(0.27,-0.27)" fill="#eaf3ff" fill-opacity="0.93" stroke="#ffffff" stroke-width="6.666666666666666" stroke-linejoin="round"/>
<path d="M409 403C390 409 382 411 372 411C354 411 333 402 306 383L247 340C248 348 250 353 250 356C258 389 259 395 259 400C259 406 253 411 246 411C233 411 145 368 84 331L81 304C135 332 141 334 153 334C166 334 172 327 172 313C172 299 162 252 150 209L90 -10L167 19L242 304C276 329 299 339 326 339C348 339 361 331 379 308Z" transform="translate(407.74999999999994,265) scale(0.27,-0.27)" fill="#eaf3ff" fill-opacity="0.93" stroke="#ffffff" stroke-width="6.666666666666666" stroke-linejoin="round"/>
<path d="M190 127C245 348 255 388 255 399C255 406 248 411 240 411C224 411 223 411 82 323L80 294C95 302 100 304 115 313C138 326 144 329 151 329C157 329 163 323 163 317C163 304 139 196 116 105C49 -161 37 -185 -32 -185C-45 -185 -47 -185 -86 -181L-133 -241C-112 -246 -102 -247 -84 -247C-35 -247 -10 -234 41 -185C132 -96 135 -89 190 127ZM315 554C297 583 296 586 286 609C285 613 283 618 281 622C275 617 271 614 267 611C240 588 238 587 212 569C220 545 227 533 250 499L283 529C289 533 292 536 315 554Z" transform="translate(488.74999999999994,265) scale(0.27,-0.27)" fill="#eaf3ff" fill-opacity="0.93" stroke="#ffffff" stroke-width="6.666666666666666" stroke-linejoin="round"/>
<path d="M514 109 509 118C491 106 422 60 407 60C394 60 393 78 393 92C393 146 444 343 468 412C454 404 397 376 385 370L334 147C332 140 312 122 310 116C293 105 224 59 207 59C190 59 186 81 186 95C186 135 217 245 234 310C240 336 252 383 252 395C252 404 248 409 239 409C221 409 112 342 83 326L81 299C101 309 134 328 151 328C161 328 164 317 164 309C164 253 111 114 111 36C111 13 117 -14 144 -14C169 -14 305 79 323 92C320 72 313 27 313 8C313 -3 320 -13 333 -13C359 -13 463 58 501 87C506 90 512 107 514 109Z" transform="translate(548.15,265) scale(0.27,-0.27)" fill="#eaf3ff" fill-opacity="0.93" stroke="#ffffff" stroke-width="6.666666666666666" stroke-linejoin="round"/>
<path d="M361 101 363 126C287 81 255 64 241 64C228 64 212 90 212 111C212 125 229 202 255 307C269 308 279 308 284 308L324 309C328 309 338 310 354 312L392 341H264L304 503C285 493 277 490 262 483C255 479 247 476 239 472C235 470 230 468 225 466L197 341C188 340 182 340 179 340H155C155 340 148 340 140 339C129 332 128 332 111 318C108 316 103 312 96 307H120H166H188C135 85 135 85 135 54C135 22 156 -13 175 -13C197 -13 265 29 361 101Z" transform="translate(672.35,265) scale(0.27,-0.27)" fill="#eaf3ff" fill-opacity="0.93" stroke="#ffffff" stroke-width="6.666666666666666" stroke-linejoin="round"/>
<path d="M491 99V128C472 116 406 69 390 69C380 69 378 82 378 91C378 128 423 311 435 360C439 366 459 391 464 396C430 405 386 411 346 411C279 411 272 404 226 372C199 353 174 342 155 312C105 234 86 133 86 70C86 40 94 -14 129 -14C166 -14 256 61 308 97L301 52C295 18 289 -13 313 -13C338 -13 462 78 491 99ZM314 136C284 114 218 60 192 60C166 60 161 87 161 111C161 175 181 248 207 299C224 334 240 363 285 363C310 363 341 356 366 351Z" transform="translate(758.75,265) scale(0.27,-0.27)" fill="#eaf3ff" fill-opacity="0.93" stroke="#ffffff" stroke-width="6.666666666666666" stroke-linejoin="round"/>
<path d="M190 127C245 348 255 388 255 399C255 406 248 411 240 411C224 411 223 411 82 323L80 294C95 302 100 304 115 313C138 326 144 329 151 329C157 329 163 323 163 317C163 304 139 196 116 105C49 -161 37 -185 -32 -185C-45 -185 -47 -185 -86 -181L-133 -241C-112 -246 -102 -247 -84 -247C-35 -247 -10 -234 41 -185C132 -96 135 -89 190 127ZM315 554C297 583 296 586 286 609C285 613 283 618 281 622C275 617 271 614 267 611C240 588 238 587 212 569C220 545 227 533 250 499L283 529C289 533 292 536 315 554Z" transform="translate(872.15,265) scale(0.27,-0.27)" fill="#eaf3ff" fill-opacity="0.93" stroke="#ffffff" stroke-width="6.666666666666666" stroke-linejoin="round"/>
<path d="M491 99V128C472 116 406 69 390 69C380 69 378 82 378 91C378 128 423 311 435 360C439 366 459 391 464 396C430 405 386 411 346 411C279 411 272 404 226 372C199 353 174 342 155 312C105 234 86 133 86 70C86 40 94 -14 129 -14C166 -14 256 61 308 97L301 52C295 18 289 -13 313 -13C338 -13 462 78 491 99ZM314 136C284 114 218 60 192 60C166 60 161 87 161 111C161 175 181 248 207 299C224 334 240 363 285 363C310 363 341 356 366 351Z" transform="translate(931.55,265) scale(0.27,-0.27)" fill="#eaf3ff" fill-opacity="0.93" stroke="#ffffff" stroke-width="6.666666666666666" stroke-linejoin="round"/>
<g fill="#ffd166"><circle cx="364.8" cy="300.1" r="2.2"/><circle cx="361.8" cy="278.0" r="2.2"/><circle cx="336.2" cy="297.4" r="2.2"/><circle cx="309.5" cy="275.3" r="2.2"/><circle cx="284.1" cy="212.9" r="2.2"/><circle cx="269.0" cy="171.6" r="2.2"/><circle cx="334.0" cy="128.6" r="2.2"/><circle cx="350.0" cy="132.7" r="2.2"/><circle cx="360.0" cy="112.7" r="2.2"/><circle cx="344.8" cy="109.2" r="2.2"/><circle cx="318.1" cy="122.2" r="2.2"/><circle cx="261.4" cy="168.6" r="2.2"/><circle cx="252.8" cy="175.4" r="2.2"/><circle cx="266.8" cy="118.9" r="2.2"/><circle cx="280.8" cy="110.6" r="2.2"/><circle cx="256.3" cy="109.5" r="2.2"/><circle cx="205.8" cy="118.1" r="2.2"/><circle cx="174.5" cy="163.5" r="2.2"/><circle cx="179.1" cy="183.7" r="2.2"/><circle cx="201.2" cy="174.3" r="2.2"/><circle cx="195.3" cy="148.6" r="2.2"/><circle cx="233.9" cy="119.5" r="2.2"/><circle cx="246.8" cy="120.3" r="2.2"/><circle cx="238.7" cy="153.5" r="2.2"/><circle cx="222.3" cy="213.7" r="2.2"/><circle cx="180.9" cy="253.4" r="2.2"/><circle cx="170.7" cy="253.4" r="2.2"/><circle cx="158.8" cy="265.0" r="2.2"/><circle cx="195.8" cy="265.0" r="2.2"/><circle cx="238.5" cy="253.4" r="2.2"/><circle cx="205.8" cy="253.4" r="2.2"/><circle cx="251.7" cy="179.7" r="2.2"/><circle cx="253.6" cy="185.6" r="2.2"/><circle cx="258.4" cy="200.5" r="2.2"/><circle cx="263.3" cy="216.7" r="2.2"/><circle cx="292.7" cy="284.2" r="2.2"/><circle cx="341.1" cy="304.7" r="2.2"/><circle cx="364.8" cy="300.1" r="2.2"/><circle cx="1064.1" cy="238.3" r="2.2"/><circle cx="1064.1" cy="230.4" r="2.2"/><circle cx="1036.8" cy="246.4" r="2.2"/><circle cx="1033.6" cy="240.4" r="2.2"/><circle cx="1049.0" cy="167.8" r="2.2"/><circle cx="1056.8" cy="158.1" r="2.2"/><circle cx="1025.0" cy="154.0" r="2.2"/><circle cx="992.6" cy="164.6" r="2.2"/><circle cx="973.4" cy="180.8" r="2.2"/><circle cx="954.8" cy="246.1" r="2.2"/><circle cx="966.4" cy="268.8" r="2.2"/><circle cx="1014.7" cy="238.8" r="2.2"/><circle cx="1012.8" cy="251.0" r="2.2"/><circle cx="1016.1" cy="268.5" r="2.2"/><circle cx="1064.1" cy="238.3" r="2.2"/><circle cx="1016.3" cy="228.3" r="2.2"/><circle cx="983.4" cy="248.8" r="2.2"/><circle cx="975.0" cy="235.0" r="2.2"/><circle cx="987.4" cy="184.3" r="2.2"/><circle cx="1008.5" cy="167.0" r="2.2"/><circle cx="1030.4" cy="170.2" r="2.2"/></g>
<g stroke="#e6f2ff" stroke-opacity="0.55" stroke-width="1.3"><line x1="135.0" y1="360.0" x2="1045.0" y2="360.0"/><line x1="135.0" y1="352.0" x2="135.0" y2="368.0"/><line x1="1045.0" y1="352.0" x2="1045.0" y2="368.0"/></g>
</g></svg>